<?xml version="1.0" encoding="utf-8"?>
<!-- Generator: Adobe Illustrator 16.0.0, SVG Export Plug-In . SVG Version: 6.00 Build 0)  -->
<!DOCTYPE svg PUBLIC "-//W3C//DTD SVG 1.1//EN" "http://www.w3.org/Graphics/SVG/1.1/DTD/svg11.dtd">
<svg version="1.1" id="Layer_1" xmlns="http://www.w3.org/2000/svg" xmlns:xlink="http://www.w3.org/1999/xlink" x="0px" y="0px"
	 width="595.28px" height="841.89px" viewBox="0 0 595.28 841.89" enable-background="new 0 0 595.28 841.89" xml:space="preserve">
<g enable-background="new    ">
	<g>
		<g enable-background="new    ">
			<g>
				<path d="M128.181,459.064c1.086,3.715,2.152,7.297,3.195,10.735C130.333,466.36,129.267,462.78,128.181,459.064z"/>
			</g>
			<g>
				<path d="M262.998,544.355c-5.182-0.745-10.201-5.071-15.512-13.969C252.786,539.268,257.794,543.596,262.998,544.355z"/>
			</g>
			<g enable-background="new    ">
				<defs>
					<path id="SVGID_1_" enable-background="new    " d="M230.365,494.384c-2.215,6.414-4.342,12.133-6.401,17.196
						C226.022,506.517,228.149,500.798,230.365,494.384z"/>
				</defs>
				<clipPath id="SVGID_2_">
					<use xlink:href="#SVGID_1_"  overflow="visible"/>
				</clipPath>
				<g clip-path="url(#SVGID_2_)" enable-background="new    ">
					<path fill="#8A8A8A" d="M230.365,494.384c-2.215,6.414-4.342,12.133-6.401,17.196
						C226.022,506.517,228.149,500.798,230.365,494.384"/>
				</g>
			</g>
			<g enable-background="new    ">
				<defs>
					<path id="SVGID_3_" enable-background="new    " d="M230.365,494.384c-4.333-12.556-8.995-27.737-14.133-45.855
						C221.37,466.646,226.032,481.828,230.365,494.384z"/>
				</defs>
				<clipPath id="SVGID_4_">
					<use xlink:href="#SVGID_3_"  overflow="visible"/>
				</clipPath>
				<g clip-path="url(#SVGID_4_)" enable-background="new    ">
					<path d="M230.365,494.384c-4.333-12.556-8.995-27.737-14.133-45.855C221.37,466.646,226.032,481.828,230.365,494.384"/>
				</g>
			</g>
			<g enable-background="new    ">
				<defs>
					<path id="SVGID_5_" enable-background="new    " d="M216.231,448.528c5.138,18.118,9.801,33.3,14.133,45.855
						C226.032,481.828,221.37,466.646,216.231,448.528z"/>
				</defs>
				<clipPath id="SVGID_6_">
					<use xlink:href="#SVGID_5_"  overflow="visible"/>
				</clipPath>
				<g clip-path="url(#SVGID_6_)" enable-background="new    ">
					<path fill="#9E9E9E" d="M216.231,448.528c5.138,18.118,9.801,33.3,14.133,45.855
						C226.032,481.828,221.37,466.646,216.231,448.528"/>
				</g>
			</g>
			<g enable-background="new    ">
				<defs>
					<path id="SVGID_7_" enable-background="new    " d="M296.234,442.358c2.225,7.957,4.359,15.368,6.414,22.269
						C300.593,457.727,298.459,450.315,296.234,442.358z"/>
				</defs>
				<clipPath id="SVGID_8_">
					<use xlink:href="#SVGID_7_"  overflow="visible"/>
				</clipPath>
				<g clip-path="url(#SVGID_8_)" enable-background="new    ">
					<path d="M296.234,442.358c2.225,7.957,4.359,15.368,6.414,22.269C300.593,457.727,298.459,450.315,296.234,442.358"/>
				</g>
			</g>
			<g enable-background="new    ">
				<defs>
					<path id="SVGID_9_" enable-background="new    " d="M277.23,498.527c-4.202-11.804-8.704-26.113-13.654-43.251l0,0
						C268.526,472.414,273.028,486.724,277.23,498.527z"/>
				</defs>
				<clipPath id="SVGID_10_">
					<use xlink:href="#SVGID_9_"  overflow="visible"/>
				</clipPath>
				<g clip-path="url(#SVGID_10_)" enable-background="new    ">
					<path d="M277.23,498.527c-4.202-11.804-8.704-26.113-13.654-43.251l0,0C268.526,472.414,273.028,486.724,277.23,498.527"/>
				</g>
			</g>
			<g enable-background="new    ">
				<defs>
					<path id="SVGID_11_" enable-background="new    " d="M278.056,500.825c-0.273-0.754-0.549-1.521-0.825-2.298
						C277.507,499.304,277.782,500.071,278.056,500.825z"/>
				</defs>
				<clipPath id="SVGID_12_">
					<use xlink:href="#SVGID_11_"  overflow="visible"/>
				</clipPath>
				<g clip-path="url(#SVGID_12_)" enable-background="new    ">
					<path d="M278.056,500.825c-0.273-0.754-0.549-1.521-0.825-2.298C277.507,499.304,277.782,500.071,278.056,500.825"/>
				</g>
			</g>
			<g>
				<path d="M308.384,544.355c-5.034-0.729-9.955-4.893-15.143-13.415C298.418,539.446,303.326,543.612,308.384,544.355z"/>
			</g>
			<g enable-background="new    ">
				<defs>
					<path id="SVGID_13_" enable-background="new    " d="M300.525,463.168c-1.93-6.515-3.927-13.475-6.001-20.9
						C296.599,449.693,298.596,456.653,300.525,463.168z"/>
				</defs>
				<clipPath id="SVGID_14_">
					<use xlink:href="#SVGID_13_"  overflow="visible"/>
				</clipPath>
				<g clip-path="url(#SVGID_14_)" enable-background="new    ">
					<path fill="#9E9E9E" d="M294.524,442.268c8.641,30.927,15.938,53.781,22.564,70.007
						C310.463,496.049,303.165,473.194,294.524,442.268"/>
				</g>
			</g>
			<g>
				<path d="M299.347,459.152c-1.563-5.344-3.167-10.958-4.822-16.885C296.18,448.194,297.784,453.809,299.347,459.152z"/>
			</g>
			<g>
				<path d="M209.532,540.287c-2.167,2.264-4.346,3.819-6.532,4.563h-2.849l0.036-0.495c-0.128-0.018-0.255-0.039-0.383-0.063
					c2.902-0.527,5.758-2.184,8.643-5.142C208.809,539.551,209.171,539.928,209.532,540.287z"/>
			</g>
			<g>
				<path d="M299.79,460.67c15.931,54.24,27.221,78.49,38.987,83.686C327.016,539.168,315.722,514.917,299.79,460.67z"/>
			</g>
			<g enable-background="new    ">
				<defs>
					<path id="SVGID_15_" enable-background="new    " d="M270.662,473.395c-0.122-0.392-0.241-0.782-0.362-1.179
						C270.42,472.612,270.54,473.003,270.662,473.395z"/>
				</defs>
				<clipPath id="SVGID_16_">
					<use xlink:href="#SVGID_15_"  overflow="visible"/>
				</clipPath>
				<g clip-path="url(#SVGID_16_)" enable-background="new    ">
					<path fill="#858585" d="M270.662,473.395c-0.122-0.392-0.241-0.782-0.362-1.179C270.42,472.612,270.54,473.003,270.662,473.395
						"/>
				</g>
			</g>
			<g enable-background="new    ">
				<defs>
					<path id="SVGID_17_" enable-background="new    " d="M309.087,490.468c-0.012-0.034-0.022-0.067-0.034-0.102
						C309.063,490.4,309.075,490.434,309.087,490.468L309.087,490.468z"/>
				</defs>
				<clipPath id="SVGID_18_">
					<use xlink:href="#SVGID_17_"  overflow="visible"/>
				</clipPath>
				<g clip-path="url(#SVGID_18_)" enable-background="new    ">
					<path fill="#9E9E9E" d="M294.524,442.268c8.641,30.927,15.938,53.781,22.564,70.007
						C310.463,496.049,303.165,473.194,294.524,442.268"/>
				</g>
			</g>
			<g enable-background="new    ">
				<defs>
					<path id="SVGID_19_" enable-background="new    " d="M312.188,499.413L312.188,499.413L312.188,499.413
						c-0.221-0.616-0.441-1.239-0.664-1.868C311.746,498.174,311.967,498.797,312.188,499.413z"/>
				</defs>
				<clipPath id="SVGID_20_">
					<use xlink:href="#SVGID_19_"  overflow="visible"/>
				</clipPath>
				<g clip-path="url(#SVGID_20_)" enable-background="new    ">
					<path fill="#9E9E9E" d="M294.524,442.268c8.641,30.927,15.938,53.781,22.564,70.007
						C310.463,496.049,303.165,473.194,294.524,442.268"/>
				</g>
			</g>
			<g enable-background="new    ">
				<defs>
					<path id="SVGID_21_" enable-background="new    " d="M231.196,496.774L231.196,496.774c-2.122,6.006-4.262,11.641-6.416,16.791
						C226.934,508.415,229.074,502.78,231.196,496.774z"/>
				</defs>
				<clipPath id="SVGID_22_">
					<use xlink:href="#SVGID_21_"  overflow="visible"/>
				</clipPath>
				<g clip-path="url(#SVGID_22_)" enable-background="new    ">
					<path d="M231.196,496.774L231.196,496.774c-2.122,6.006-4.262,11.641-6.416,16.791
						C226.934,508.415,229.074,502.78,231.196,496.774"/>
				</g>
			</g>
			<g enable-background="new    ">
				<defs>
					<path id="SVGID_23_" enable-background="new    " d="M227.105,503.488c-1.066,2.864-2.112,5.56-3.142,8.092
						C224.993,509.048,226.04,506.353,227.105,503.488z"/>
				</defs>
				<clipPath id="SVGID_24_">
					<use xlink:href="#SVGID_23_"  overflow="visible"/>
				</clipPath>
				<g clip-path="url(#SVGID_24_)" enable-background="new    ">
					<path d="M223.964,511.58c1.029-2.532,2.076-5.228,3.142-8.092C226.04,506.353,224.993,509.048,223.964,511.58"/>
				</g>
			</g>
			<g enable-background="new    ">
				<defs>
					<path id="SVGID_25_" enable-background="new    " d="M231.196,496.774L231.196,496.774c-0.276-0.787-0.553-1.581-0.832-2.391
						C230.644,495.193,230.92,495.987,231.196,496.774z"/>
				</defs>
				<clipPath id="SVGID_26_">
					<use xlink:href="#SVGID_25_"  overflow="visible"/>
				</clipPath>
				<g clip-path="url(#SVGID_26_)" enable-background="new    ">
					<path d="M231.196,496.774L231.196,496.774c-0.276-0.787-0.553-1.581-0.832-2.391
						C230.644,495.193,230.92,495.987,231.196,496.774"/>
				</g>
			</g>
			<g>
				<path d="M231.196,496.774c-2.122,6.006-4.262,11.641-6.416,16.791c-0.271-0.649-0.544-1.313-0.817-1.985
					c2.059-5.063,4.186-10.782,6.401-17.196C230.644,495.193,230.92,495.987,231.196,496.774z"/>
			</g>
			<g enable-background="new    ">
				<defs>
					<path id="SVGID_27_" enable-background="new    " d="M309.053,490.366c-0.813-2.42-1.638-4.93-2.475-7.532
						C307.415,485.437,308.24,487.946,309.053,490.366z"/>
				</defs>
				<clipPath id="SVGID_28_">
					<use xlink:href="#SVGID_27_"  overflow="visible"/>
				</clipPath>
				<g clip-path="url(#SVGID_28_)" enable-background="new    ">
					<path fill="#9E9E9E" d="M294.524,442.268c8.641,30.927,15.938,53.781,22.564,70.007
						C310.463,496.049,303.165,473.194,294.524,442.268"/>
				</g>
			</g>
			<g enable-background="new    ">
				<defs>
					<path id="SVGID_29_" enable-background="new    " d="M311.523,497.545c-0.801-2.268-1.613-4.626-2.437-7.077l0,0
						C309.91,492.919,310.723,495.277,311.523,497.545z"/>
				</defs>
				<clipPath id="SVGID_30_">
					<use xlink:href="#SVGID_29_"  overflow="visible"/>
				</clipPath>
				<g clip-path="url(#SVGID_30_)" enable-background="new    ">
					<path fill="#9E9E9E" d="M294.524,442.268c8.641,30.927,15.938,53.781,22.564,70.007
						C310.463,496.049,303.165,473.194,294.524,442.268"/>
				</g>
			</g>
			<g>
				<path d="M246.681,440.846c2.06-7.484,4.185-15.003,6.357-22.408c0.288,0.969,0.574,1.939,0.865,2.929
					c-1.759,6-3.576,12.368-5.458,19.119c-0.31,1.113-0.621,2.226-0.933,3.334C247.236,442.837,246.959,441.846,246.681,440.846z"/>
			</g>
			<g>
				<path d="M216.231,448.528c-2.113,7.45-4.248,14.778-6.403,21.864c-0.281-0.924-0.564-1.858-0.848-2.802
					c2.051-6.82,4.183-14.171,6.404-22.063C215.669,446.541,215.95,447.536,216.231,448.528z"/>
			</g>
			<g>
				<path d="M184.824,530.633c2.834-4.7,5.748-10.697,8.81-18.146c0.272,0.663,0.542,1.316,0.812,1.957
					c-2.893,6.832-5.813,12.785-8.756,17.592C185.403,531.582,185.113,531.114,184.824,530.633z"/>
			</g>
			<g enable-background="new    ">
				<defs>
					<path id="SVGID_31_" enable-background="new    " d="M264.288,498.095c-2.27-6.39-4.632-13.523-7.109-21.453
						C259.656,484.571,262.018,491.705,264.288,498.095z"/>
				</defs>
				<clipPath id="SVGID_32_">
					<use xlink:href="#SVGID_31_"  overflow="visible"/>
				</clipPath>
				<g clip-path="url(#SVGID_32_)" enable-background="new    ">
					<path fill="#858585" d="M264.283,498.081c-2.269-6.386-4.629-13.516-7.104-21.439
						C259.654,484.565,262.014,491.695,264.283,498.081"/>
				</g>
			</g>
			<g enable-background="new    ">
				<defs>
					<path id="SVGID_33_" enable-background="new    " d="M263.577,455.276c4.95,17.138,9.452,31.447,13.654,43.251
						C273.028,486.724,268.526,472.414,263.577,455.276z"/>
				</defs>
				<clipPath id="SVGID_34_">
					<use xlink:href="#SVGID_33_"  overflow="visible"/>
				</clipPath>
				<g clip-path="url(#SVGID_34_)" enable-background="new    ">
					<path fill="#9E9E9E" d="M263.577,455.276L263.577,455.276c4.95,17.138,9.452,31.447,13.654,43.251
						C273.028,486.724,268.526,472.414,263.577,455.276"/>
				</g>
			</g>
			<g enable-background="new    ">
				<defs>
					<path id="SVGID_35_" enable-background="new    " d="M277.23,498.527c-2.211,6.204-4.335,11.695-6.396,16.528
						C272.896,510.223,275.019,504.731,277.23,498.527z"/>
				</defs>
				<clipPath id="SVGID_36_">
					<use xlink:href="#SVGID_35_"  overflow="visible"/>
				</clipPath>
				<g clip-path="url(#SVGID_36_)" enable-background="new    ">
					<path fill="#8A8A8A" d="M277.23,498.527c-2.211,6.204-4.335,11.695-6.396,16.528
						C272.896,510.223,275.019,504.731,277.23,498.527"/>
				</g>
			</g>
			<g>
				<path fill="#DDDDDD" d="M270.835,515.056c-4.215-9.896-8.706-22.565-13.656-38.414c2.152-6.887,4.285-14.048,6.398-21.365
					c4.95,17.138,9.452,31.447,13.654,43.251C275.019,504.731,272.896,510.223,270.835,515.056z"/>
			</g>
			<g>
				<path fill="#DDDDDD" d="M230.365,494.384c-2.215,6.414-4.342,12.133-6.401,17.196c-4.342-10.685-8.99-24.275-14.136-41.188
					c2.156-7.086,4.291-14.414,6.403-21.864C221.37,466.646,226.032,481.828,230.365,494.384z"/>
			</g>
			<g enable-background="new    ">
				<defs>
					<path id="SVGID_37_" enable-background="new    " d="M306.578,482.834c-1.132-3.519-2.287-7.206-3.468-11.068
						C304.291,475.628,305.446,479.315,306.578,482.834z"/>
				</defs>
				<clipPath id="SVGID_38_">
					<use xlink:href="#SVGID_37_"  overflow="visible"/>
				</clipPath>
				<g clip-path="url(#SVGID_38_)" enable-background="new    ">
					<path fill="#9E9E9E" d="M294.524,442.268c8.641,30.927,15.938,53.781,22.564,70.007
						C310.463,496.049,303.165,473.194,294.524,442.268"/>
				</g>
			</g>
			<g enable-background="new    ">
				<defs>
					<path id="SVGID_39_" enable-background="new    " d="M303.11,471.766c-0.848-2.775-1.71-5.641-2.585-8.598l0,0
						C301.4,466.125,302.263,468.99,303.11,471.766z"/>
				</defs>
				<clipPath id="SVGID_40_">
					<use xlink:href="#SVGID_39_"  overflow="visible"/>
				</clipPath>
				<g clip-path="url(#SVGID_40_)" enable-background="new    ">
					<path fill="#9E9E9E" d="M294.524,442.268c8.641,30.927,15.938,53.781,22.564,70.007
						C310.463,496.049,303.165,473.194,294.524,442.268"/>
				</g>
			</g>
			<g enable-background="new    ">
				<defs>
					<path id="SVGID_41_" enable-background="new    " d="M312.221,499.505c-0.011-0.03-0.021-0.062-0.033-0.092l0,0
						C312.199,499.443,312.21,499.475,312.221,499.505z"/>
				</defs>
				<clipPath id="SVGID_42_">
					<use xlink:href="#SVGID_41_"  overflow="visible"/>
				</clipPath>
				<g clip-path="url(#SVGID_42_)" enable-background="new    ">
					<path fill="#9E9E9E" d="M294.524,442.268c8.641,30.927,15.938,53.781,22.564,70.007
						C310.463,496.049,303.165,473.194,294.524,442.268"/>
				</g>
			</g>
			<g>
				<path fill="#DDDDDD" d="M248.115,544.293c-4.552-0.811-8.99-4.417-13.619-11.49c2.12-3.373,4.229-7.348,6.326-11.824
					c4.67,10.012,9.054,16.638,13.412,20.439C252.199,542.981,250.169,543.919,248.115,544.293z"/>
			</g>
			<g>
				<path d="M254.233,541.418c0.426,0.371,0.85,0.714,1.276,1.033c-1.392,1.113-2.79,1.922-4.188,2.399h-2.858l0.037-0.495
					c-0.129-0.018-0.256-0.039-0.384-0.063C250.169,543.919,252.199,542.981,254.233,541.418z"/>
			</g>
			<g>
				<path d="M240.822,520.979c-2.096,4.477-4.206,8.452-6.326,11.824c-0.291-0.444-0.581-0.9-0.874-1.371
					c2.081-3.352,4.202-7.401,6.392-12.21C240.285,519.817,240.554,520.406,240.822,520.979z"/>
			</g>
			<g enable-background="new    ">
				<defs>
					<path id="SVGID_43_" enable-background="new    " d="M314.605,505.965c-0.011-0.028-0.021-0.057-0.032-0.085
						C314.584,505.908,314.595,505.937,314.605,505.965z"/>
				</defs>
				<clipPath id="SVGID_44_">
					<use xlink:href="#SVGID_43_"  overflow="visible"/>
				</clipPath>
				<g clip-path="url(#SVGID_44_)" enable-background="new    ">
					<path fill="#9E9E9E" d="M294.524,442.268c8.641,30.927,15.938,53.781,22.564,70.007
						C310.463,496.049,303.165,473.194,294.524,442.268"/>
				</g>
			</g>
			<g enable-background="new    ">
				<defs>
					<path id="SVGID_45_" enable-background="new    " d="M317.493,513.259L317.493,513.259L317.493,513.259L317.493,513.259
						L317.493,513.259c-0.948-2.294-1.91-4.724-2.888-7.294C315.583,508.535,316.545,510.965,317.493,513.259L317.493,513.259
						L317.493,513.259L317.493,513.259L317.493,513.259L317.493,513.259L317.493,513.259L317.493,513.259L317.493,513.259z"/>
				</defs>
				<clipPath id="SVGID_46_">
					<use xlink:href="#SVGID_45_"  overflow="visible"/>
				</clipPath>
				<g clip-path="url(#SVGID_46_)" enable-background="new    ">
					<path fill="#9E9E9E" d="M294.524,442.268c8.641,30.927,15.938,53.781,22.564,70.007
						C310.463,496.049,303.165,473.194,294.524,442.268"/>
					<path fill="#A3A3A3" d="M317.089,512.274c0.58,1.42,1.154,2.789,1.725,4.109C318.243,515.063,317.669,513.694,317.089,512.274"
						/>
				</g>
			</g>
			<g enable-background="new    ">
				<defs>
					<path id="SVGID_47_" enable-background="new    " d="M314.573,505.88c-0.193-0.509-0.388-1.023-0.583-1.543
						C314.186,504.856,314.38,505.371,314.573,505.88z"/>
				</defs>
				<clipPath id="SVGID_48_">
					<use xlink:href="#SVGID_47_"  overflow="visible"/>
				</clipPath>
				<g clip-path="url(#SVGID_48_)" enable-background="new    ">
					<path fill="#9E9E9E" d="M294.524,442.268c8.641,30.927,15.938,53.781,22.564,70.007
						C310.463,496.049,303.165,473.194,294.524,442.268"/>
				</g>
			</g>
			<g enable-background="new    ">
				<defs>
					<path id="SVGID_49_" enable-background="new    " d="M317.493,513.259L317.493,513.259L317.493,513.259L317.493,513.259
						L317.493,513.259L317.493,513.259L317.493,513.259L317.493,513.259L317.493,513.259L317.493,513.259L317.493,513.259
						L317.493,513.259L317.493,513.259c0.438,1.059,0.873,2.088,1.305,3.089l0,0C318.366,515.347,317.931,514.317,317.493,513.259z"
						/>
				</defs>
				<clipPath id="SVGID_50_">
					<use xlink:href="#SVGID_49_"  overflow="visible"/>
				</clipPath>
				<g clip-path="url(#SVGID_50_)" enable-background="new    ">
					<path fill="#A3A3A3" d="M317.089,512.274c0.58,1.42,1.154,2.789,1.725,4.109C318.243,515.063,317.669,513.694,317.089,512.274"
						/>
				</g>
			</g>
			<g>
				<path d="M263.576,455.276c-2.112,7.317-4.245,14.479-6.398,21.365c-0.277-0.888-0.558-1.791-0.839-2.7
					c2.05-6.646,4.179-13.83,6.399-21.58C263.018,453.339,263.299,454.316,263.576,455.276z"/>
			</g>
			<g enable-background="new    ">
				<defs>
					<path id="SVGID_51_" enable-background="new    " d="M257.178,476.642c-0.277-0.888-0.558-1.791-0.839-2.7
						C256.62,474.851,256.9,475.754,257.178,476.642z"/>
				</defs>
				<clipPath id="SVGID_52_">
					<use xlink:href="#SVGID_51_"  overflow="visible"/>
				</clipPath>
				<g clip-path="url(#SVGID_52_)" enable-background="new    ">
					<path d="M257.178,476.642c-0.277-0.888-0.558-1.791-0.839-2.7C256.62,474.851,256.9,475.754,257.178,476.642"/>
				</g>
			</g>
			<g enable-background="new    ">
				<defs>
					<path id="SVGID_53_" enable-background="new    " d="M278.056,500.825c-2.12,5.806-4.255,11.213-6.405,16.12
						C273.801,512.038,275.936,506.631,278.056,500.825z"/>
				</defs>
				<clipPath id="SVGID_54_">
					<use xlink:href="#SVGID_53_"  overflow="visible"/>
				</clipPath>
				<g clip-path="url(#SVGID_54_)" enable-background="new    ">
					<path d="M278.056,500.825c-2.12,5.806-4.255,11.213-6.405,16.12C273.801,512.038,275.936,506.631,278.056,500.825"/>
				</g>
			</g>
			<g>
				<path d="M271.651,516.945c-0.271-0.618-0.542-1.248-0.816-1.89c2.061-4.833,4.184-10.324,6.396-16.528
					c0.276,0.776,0.552,1.544,0.825,2.298C275.936,506.631,273.801,512.038,271.651,516.945z"/>
			</g>
			<g enable-background="new    ">
				<defs>
					<path id="SVGID_55_" enable-background="new    " d="M313.99,504.337c-0.216-0.578-0.433-1.163-0.65-1.755
						C313.558,503.174,313.774,503.759,313.99,504.337z"/>
				</defs>
				<clipPath id="SVGID_56_">
					<use xlink:href="#SVGID_55_"  overflow="visible"/>
				</clipPath>
				<g clip-path="url(#SVGID_56_)" enable-background="new    ">
					<path fill="#9E9E9E" d="M294.524,442.268c8.641,30.927,15.938,53.781,22.564,70.007
						C310.463,496.049,303.165,473.194,294.524,442.268"/>
				</g>
			</g>
			<g enable-background="new    ">
				<defs>
					<path id="SVGID_57_" enable-background="new    " d="M312.221,499.505c0.375,1.046,0.748,2.071,1.119,3.077
						C312.969,501.576,312.596,500.551,312.221,499.505z"/>
				</defs>
				<clipPath id="SVGID_58_">
					<use xlink:href="#SVGID_57_"  overflow="visible"/>
				</clipPath>
				<g clip-path="url(#SVGID_58_)" enable-background="new    ">
					<path fill="#9E9E9E" d="M294.524,442.268c8.641,30.927,15.938,53.781,22.564,70.007
						C310.463,496.049,303.165,473.194,294.524,442.268"/>
				</g>
			</g>
			<g>
				<path d="M262.961,544.355h26.64H262.961z"/>
			</g>
			<g>
				<path fill="#DDDDDD" d="M293.539,544.293c-4.873-0.869-9.615-4.941-14.602-13.045c2.125-3.564,4.239-7.72,6.339-12.366
					c5.033,11.193,9.719,18.477,14.376,22.538C297.621,542.983,295.592,543.919,293.539,544.293z"/>
			</g>
			<g>
				<path d="M299.653,541.42c0.427,0.371,0.853,0.715,1.277,1.032c-1.392,1.113-2.788,1.922-4.187,2.398h-2.858l0.036-0.495
					c-0.127-0.018-0.255-0.039-0.382-0.063C295.592,543.919,297.621,542.983,299.653,541.42z"/>
			</g>
			<g>
				<path d="M278.081,529.822c2.076-3.538,4.197-7.774,6.388-12.762c0.27,0.618,0.54,1.225,0.808,1.821
					c-2.1,4.646-4.214,8.802-6.339,12.366C278.653,530.786,278.368,530.311,278.081,529.822z"/>
			</g>
			<g>
				<path d="M219.73,454.862c-1.131-3.917-2.286-7.982-3.466-12.199C217.444,446.88,218.6,450.945,219.73,454.862z"/>
			</g>
			<g enable-background="new    ">
				<defs>
					<path id="SVGID_59_" enable-background="new    " d="M318.112,510.57c6.521-16.237,13.729-38.986,22.268-69.651l0,0
						C331.841,471.584,324.633,494.333,318.112,510.57z"/>
				</defs>
				<clipPath id="SVGID_60_">
					<use xlink:href="#SVGID_59_"  overflow="visible"/>
				</clipPath>
				<g clip-path="url(#SVGID_60_)" enable-background="new    ">
					<path d="M318.112,510.57c6.521-16.237,13.729-38.986,22.268-69.651l0,0C331.841,471.584,324.633,494.333,318.112,510.57"/>
				</g>
			</g>
			<g enable-background="new    ">
				<defs>
					<path id="SVGID_61_" enable-background="new    " d="M258.746,486.827c-0.952-2.895-1.92-5.911-2.906-9.053
						C256.826,480.916,257.794,483.933,258.746,486.827z"/>
				</defs>
				<clipPath id="SVGID_62_">
					<use xlink:href="#SVGID_61_"  overflow="visible"/>
				</clipPath>
				<g clip-path="url(#SVGID_62_)" enable-background="new    ">
					<path fill="#9E9E9E" d="M245.394,442.268c8.642,30.934,15.941,53.791,22.567,70.017
						C261.335,496.059,254.035,473.201,245.394,442.268"/>
				</g>
			</g>
			<g enable-background="new    ">
				<defs>
					<path id="SVGID_63_" enable-background="new    " d="M261.756,495.73c-0.986-2.83-1.989-5.796-3.01-8.903
						C259.767,489.935,260.77,492.9,261.756,495.73z"/>
				</defs>
				<clipPath id="SVGID_64_">
					<use xlink:href="#SVGID_63_"  overflow="visible"/>
				</clipPath>
				<g clip-path="url(#SVGID_64_)" enable-background="new    ">
					<path fill="#9E9E9E" d="M245.394,442.268c8.642,30.934,15.941,53.791,22.567,70.017
						C261.335,496.059,254.035,473.201,245.394,442.268"/>
				</g>
			</g>
			<g enable-background="new    ">
				<defs>
					<path id="SVGID_65_" enable-background="new    " d="M252.604,467.223c-1.038-3.455-2.096-7.042-3.174-10.764
						C250.508,460.181,251.565,463.768,252.604,467.223z"/>
				</defs>
				<clipPath id="SVGID_66_">
					<use xlink:href="#SVGID_65_"  overflow="visible"/>
				</clipPath>
				<g clip-path="url(#SVGID_66_)" enable-background="new    ">
					<path fill="#9E9E9E" d="M245.394,442.268c8.642,30.934,15.941,53.791,22.567,70.017
						C261.335,496.059,254.035,473.201,245.394,442.268"/>
				</g>
			</g>
			<g enable-background="new    ">
				<defs>
					<path id="SVGID_67_" enable-background="new    " d="M249.429,456.459c-1.313-4.528-2.657-9.257-4.036-14.191
						C246.772,447.202,248.116,451.931,249.429,456.459z"/>
				</defs>
				<clipPath id="SVGID_68_">
					<use xlink:href="#SVGID_67_"  overflow="visible"/>
				</clipPath>
				<g clip-path="url(#SVGID_68_)" enable-background="new    ">
					<path fill="#9E9E9E" d="M245.394,442.268c8.642,30.934,15.941,53.791,22.567,70.017
						C261.335,496.059,254.035,473.201,245.394,442.268"/>
				</g>
			</g>
			<g enable-background="new    ">
				<defs>
					<path id="SVGID_69_" enable-background="new    " d="M262.358,497.45c-0.2-0.567-0.401-1.141-0.603-1.72l0,0
						C261.957,496.31,262.158,496.883,262.358,497.45L262.358,497.45z"/>
				</defs>
				<clipPath id="SVGID_70_">
					<use xlink:href="#SVGID_69_"  overflow="visible"/>
				</clipPath>
				<g clip-path="url(#SVGID_70_)" enable-background="new    ">
					<path fill="#9E9E9E" d="M245.394,442.268c8.642,30.934,15.941,53.791,22.567,70.017
						C261.335,496.059,254.035,473.201,245.394,442.268"/>
				</g>
			</g>
			<g enable-background="new    ">
				<defs>
					<path id="SVGID_71_" enable-background="new    " d="M255.84,477.774c-1.058-3.372-2.136-6.888-3.236-10.552
						C253.704,470.887,254.782,474.402,255.84,477.774z"/>
				</defs>
				<clipPath id="SVGID_72_">
					<use xlink:href="#SVGID_71_"  overflow="visible"/>
				</clipPath>
				<g clip-path="url(#SVGID_72_)" enable-background="new    ">
					<path fill="#9E9E9E" d="M245.394,442.268c8.642,30.934,15.941,53.791,22.567,70.017
						C261.335,496.059,254.035,473.201,245.394,442.268"/>
				</g>
			</g>
			<g enable-background="new    ">
				<defs>
					<path id="SVGID_73_" enable-background="new    " d="M267.229,510.473c0.822,2.059,1.634,4.017,2.437,5.875l0,0
						C268.863,514.489,268.052,512.531,267.229,510.473z"/>
				</defs>
				<clipPath id="SVGID_74_">
					<use xlink:href="#SVGID_73_"  overflow="visible"/>
				</clipPath>
				<g clip-path="url(#SVGID_74_)" enable-background="new    ">
					<path fill="#9E9E9E" d="M245.394,442.268c8.642,30.934,15.941,53.791,22.567,70.017
						C261.335,496.059,254.035,473.201,245.394,442.268"/>
					<path fill="#A3A3A3" d="M267.961,512.284c0.579,1.417,1.152,2.783,1.721,4.1C269.113,515.067,268.54,513.701,267.961,512.284"
						/>
				</g>
			</g>
			<g enable-background="new    ">
				<defs>
					<path id="SVGID_75_" enable-background="new    " d="M262.358,497.45c0.623,1.766,1.239,3.476,1.85,5.132
						C263.598,500.926,262.981,499.216,262.358,497.45z"/>
				</defs>
				<clipPath id="SVGID_76_">
					<use xlink:href="#SVGID_75_"  overflow="visible"/>
				</clipPath>
				<g clip-path="url(#SVGID_76_)" enable-background="new    ">
					<path fill="#9E9E9E" d="M245.394,442.268c8.642,30.934,15.941,53.791,22.567,70.017
						C261.335,496.059,254.035,473.201,245.394,442.268"/>
				</g>
			</g>
			<g enable-background="new    ">
				<defs>
					<path id="SVGID_77_" enable-background="new    " d="M267.229,510.473c-0.011-0.026-0.021-0.053-0.032-0.079
						C267.208,510.42,267.219,510.446,267.229,510.473z"/>
				</defs>
				<clipPath id="SVGID_78_">
					<use xlink:href="#SVGID_77_"  overflow="visible"/>
				</clipPath>
				<g clip-path="url(#SVGID_78_)" enable-background="new    ">
					<path fill="#9E9E9E" d="M245.394,442.268c8.642,30.934,15.941,53.791,22.567,70.017
						C261.335,496.059,254.035,473.201,245.394,442.268"/>
				</g>
			</g>
			<g enable-background="new    ">
				<defs>
					<path id="SVGID_79_" enable-background="new    " d="M264.827,504.25c-0.108-0.289-0.217-0.58-0.325-0.873
						C264.61,503.67,264.718,503.961,264.827,504.25z"/>
				</defs>
				<clipPath id="SVGID_80_">
					<use xlink:href="#SVGID_79_"  overflow="visible"/>
				</clipPath>
				<g clip-path="url(#SVGID_80_)" enable-background="new    ">
					<path fill="#9E9E9E" d="M245.394,442.268c8.642,30.934,15.941,53.791,22.567,70.017
						C261.335,496.059,254.035,473.201,245.394,442.268"/>
				</g>
			</g>
			<g enable-background="new    ">
				<defs>
					<path id="SVGID_81_" enable-background="new    " d="M202.228,395.548c-12.011-36.696-21.412-54.08-31.121-58.553
						C180.816,341.469,190.217,358.853,202.228,395.548z"/>
				</defs>
				<clipPath id="SVGID_82_">
					<use xlink:href="#SVGID_81_"  overflow="visible"/>
				</clipPath>
				<g clip-path="url(#SVGID_82_)" enable-background="new    ">
					<path fill="#858585" d="M215.757,440.846L215.757,440.846c-19.071-68.417-31.581-97.829-44.649-103.85
						C184.176,343.017,196.686,372.429,215.757,440.846"/>
				</g>
			</g>
			<g enable-background="new    ">
				<defs>
					<path id="SVGID_83_" enable-background="new    " d="M245.394,442.268c-20.889-74.753-33.255-102.329-47.223-105.272
						C212.139,339.938,224.505,367.515,245.394,442.268z"/>
				</defs>
				<clipPath id="SVGID_84_">
					<use xlink:href="#SVGID_83_"  overflow="visible"/>
				</clipPath>
				<g clip-path="url(#SVGID_84_)" enable-background="new    ">
					<path d="M245.394,442.268c-20.889-74.753-33.255-102.329-47.223-105.272C212.139,339.938,224.505,367.515,245.394,442.268"/>
				</g>
			</g>
			<g enable-background="new    ">
				<defs>
					<path id="SVGID_85_" enable-background="new    " d="M264.501,503.377c-0.098-0.264-0.196-0.528-0.293-0.795
						C264.306,502.849,264.404,503.113,264.501,503.377z"/>
				</defs>
				<clipPath id="SVGID_86_">
					<use xlink:href="#SVGID_85_"  overflow="visible"/>
				</clipPath>
				<g clip-path="url(#SVGID_86_)" enable-background="new    ">
					<path fill="#9E9E9E" d="M245.394,442.268c8.642,30.934,15.941,53.791,22.567,70.017
						C261.335,496.059,254.035,473.201,245.394,442.268"/>
				</g>
			</g>
			<g>
				<path fill="#DDDDDD" d="M245.394,442.268c18.792,67.267,31.239,96.346,44.208,102.088h-26.604
					c-5.182-0.745-10.201-5.071-15.511-13.969c-7.444-12.955-14.678-32.06-23.312-60.496c-0.133-0.437-0.265-0.872-0.398-1.313
					c-0.532-1.767-0.598-1.984-0.663-2.2c-0.497-1.657-0.972-3.261-1.454-4.894c-0.06-0.205-0.122-0.41-0.182-0.616
					c-0.1-0.34-0.201-0.686-0.301-1.028c-0.104-0.354-0.207-0.705-0.312-1.063c-0.119-0.408-0.227-0.777-0.338-1.158
					c-0.24-0.825-0.482-1.66-0.725-2.5c-1.367-4.732-2.69-9.404-4.048-14.273c-19.071-68.417-31.581-97.829-44.649-103.85h27.063
					C212.139,339.938,224.505,367.515,245.394,442.268z"/>
			</g>
			<g>
				<path d="M246.504,446.222c18.174,64.443,30.378,92.497,43.143,98.134C276.89,538.728,264.679,510.674,246.504,446.222z"/>
			</g>
			<g enable-background="new    ">
				<defs>
					<path id="SVGID_87_" enable-background="new    " d="M326.19,528.021c10.532-19.369,20.754-52.621,30.488-87.534
						C346.944,475.4,336.723,508.652,326.19,528.021z"/>
				</defs>
				<clipPath id="SVGID_88_">
					<use xlink:href="#SVGID_87_"  overflow="visible"/>
				</clipPath>
				<g clip-path="url(#SVGID_88_)" enable-background="new    ">
					<path fill="#858585" d="M326.19,528.021c10.532-19.369,20.754-52.621,30.488-87.534
						C346.944,475.4,336.723,508.652,326.19,528.021"/>
				</g>
			</g>
			<g enable-background="new    ">
				<defs>
					<path id="SVGID_89_" enable-background="new    " d="M389.511,440.919L389.511,440.919
						c-20.229,72.66-32.982,100.854-46.832,103.374C356.528,541.773,369.281,513.579,389.511,440.919z"/>
				</defs>
				<clipPath id="SVGID_90_">
					<use xlink:href="#SVGID_89_"  overflow="visible"/>
				</clipPath>
				<g clip-path="url(#SVGID_90_)" enable-background="new    ">
					<path fill="#8F8F8F" d="M389.511,440.919L389.511,440.919c-2.147,7.712-4.21,14.923-6.199,21.655
						C385.301,455.842,387.363,448.631,389.511,440.919"/>
					<path fill="#8A8A8A" d="M383.312,462.574c-8.53,28.877-15.7,48.952-22.317,61.998
						C367.611,511.526,374.781,491.451,383.312,462.574"/>
					<path fill="#858585" d="M360.994,524.572c-6.377,12.57-12.24,18.616-18.315,19.721
						C348.754,543.188,354.617,537.143,360.994,524.572"/>
				</g>
			</g>
			<g enable-background="new    ">
				<defs>
					<path id="SVGID_91_" enable-background="new    " d="M356.679,440.487c-9.734,34.913-19.956,68.165-30.488,87.534
						C336.723,508.652,346.944,475.4,356.679,440.487z"/>
				</defs>
				<clipPath id="SVGID_92_">
					<use xlink:href="#SVGID_91_"  overflow="visible"/>
				</clipPath>
				<g clip-path="url(#SVGID_92_)" enable-background="new    ">
					<path d="M356.679,440.487c-2.096,7.514-4.213,14.951-6.352,22.188C352.466,455.438,354.583,448.001,356.679,440.487"/>
					<path d="M350.327,462.676c-7.315,24.766-14.876,47.203-22.608,62.435C335.451,509.879,343.012,487.441,350.327,462.676"/>
					<path d="M327.719,525.11c-0.509,1.003-1.019,1.974-1.528,2.911C326.7,527.084,327.21,526.113,327.719,525.11"/>
				</g>
			</g>
			<g enable-background="new    ">
				<defs>
					<path id="SVGID_93_" enable-background="new    " d="M325.358,526.491c8.425-15.841,17.69-43.116,29.512-85.572l0,0
						C343.049,483.375,333.783,510.65,325.358,526.491z"/>
				</defs>
				<clipPath id="SVGID_94_">
					<use xlink:href="#SVGID_93_"  overflow="visible"/>
				</clipPath>
				<g clip-path="url(#SVGID_94_)" enable-background="new    ">
					<path d="M325.358,526.491c8.425-15.841,17.69-43.116,29.512-85.572l0,0C343.049,483.375,333.783,510.65,325.358,526.491"/>
				</g>
			</g>
			<g enable-background="new    ">
				<defs>
					<path id="SVGID_95_" enable-background="new    " d="M267.198,510.394c-0.78-1.956-1.57-4.003-2.371-6.144
						C265.627,506.391,266.417,508.438,267.198,510.394z"/>
				</defs>
				<clipPath id="SVGID_96_">
					<use xlink:href="#SVGID_95_"  overflow="visible"/>
				</clipPath>
				<g clip-path="url(#SVGID_96_)" enable-background="new    ">
					<path fill="#9E9E9E" d="M245.394,442.268c8.642,30.934,15.941,53.791,22.567,70.017
						C261.335,496.059,254.035,473.201,245.394,442.268"/>
				</g>
			</g>
			<g>
				<path d="M219.474,544.355h24.705H219.474z"/>
			</g>
			<g enable-background="new    ">
				<defs>
					<path id="SVGID_97_" enable-background="new    " d="M167.506,494.271c-4.812-13.958-10.029-31.145-15.856-52.004
						C157.477,463.127,162.694,480.313,167.506,494.271L167.506,494.271z"/>
				</defs>
				<clipPath id="SVGID_98_">
					<use xlink:href="#SVGID_97_"  overflow="visible"/>
				</clipPath>
				<g clip-path="url(#SVGID_98_)" enable-background="new    ">
					<path fill="#9E9E9E" d="M151.649,442.268c8.642,30.933,15.941,53.79,22.567,70.016l0,0
						C167.591,496.058,160.291,473.2,151.649,442.268"/>
				</g>
			</g>
			<g enable-background="new    ">
				<defs>
					<path id="SVGID_99_" enable-background="new    " d="M167.506,494.271c2.941,8.531,5.731,15.856,8.416,22.076l0,0
						C173.237,510.128,170.447,502.803,167.506,494.271z"/>
				</defs>
				<clipPath id="SVGID_100_">
					<use xlink:href="#SVGID_99_"  overflow="visible"/>
				</clipPath>
				<g clip-path="url(#SVGID_100_)" enable-background="new    ">
					<path fill="#9E9E9E" d="M151.649,442.268c8.642,30.933,15.941,53.79,22.567,70.016l0,0
						C167.591,496.058,160.291,473.2,151.649,442.268"/>
					<path fill="#A3A3A3" d="M174.216,512.283L174.216,512.283c0.579,1.417,1.152,2.783,1.721,4.101
						C175.369,515.066,174.795,513.7,174.216,512.283"/>
				</g>
			</g>
			<g enable-background="new    ">
				<defs>
					<path id="SVGID_101_" enable-background="new    " d="M201.257,440.846L201.257,440.846c2.703,9.693,5.269,18.589,7.724,26.745
						l0,0C206.526,459.435,203.959,450.539,201.257,440.846z"/>
				</defs>
				<clipPath id="SVGID_102_">
					<use xlink:href="#SVGID_101_"  overflow="visible"/>
				</clipPath>
				<g clip-path="url(#SVGID_102_)" enable-background="new    ">
					<path d="M201.257,440.846L201.257,440.846c2.703,9.693,5.269,18.589,7.724,26.745l0,0
						C206.526,459.435,203.959,450.539,201.257,440.846"/>
				</g>
			</g>
			<g>
				<path d="M219.474,544.355c-13.923-2.007-26.73-30.06-47.205-103.51C192.726,514.233,205.523,542.304,219.474,544.355z"/>
			</g>
			<g>
				<path d="M151.649,442.268c18.792,67.258,31.23,96.337,44.253,102.088C182.889,538.613,170.441,509.534,151.649,442.268z"/>
			</g>
			<g>
				<path d="M170.189,544.355c-11.342-1.637-21.96-20.604-36.584-67.333C148.213,523.703,158.821,542.684,170.189,544.355z"/>
			</g>
			<g enable-background="new    ">
				<defs>
					<path id="SVGID_103_" enable-background="new    " d="M133.605,477.022c-0.198-0.633-0.393-1.245-0.593-1.889l0,0
						C133.212,475.777,133.407,476.39,133.605,477.022z"/>
				</defs>
				<clipPath id="SVGID_104_">
					<use xlink:href="#SVGID_103_"  overflow="visible"/>
				</clipPath>
				<g clip-path="url(#SVGID_104_)" enable-background="new    ">
					<path d="M133.605,477.022c-0.198-0.633-0.393-1.245-0.593-1.889l0,0C133.212,475.777,133.407,476.39,133.605,477.022"/>
				</g>
			</g>
			<g>
				<path d="M133.012,475.134c0.2,0.643,0.395,1.256,0.593,1.889C133.407,476.39,133.212,475.777,133.012,475.134z"/>
			</g>
			<g enable-background="new    ">
				<defs>
					<path id="SVGID_105_" enable-background="new    " d="M133.012,475.134L133.012,475.134c-0.073-0.237-0.149-0.486-0.222-0.725
						C132.863,474.647,132.939,474.896,133.012,475.134z"/>
				</defs>
				<clipPath id="SVGID_106_">
					<use xlink:href="#SVGID_105_"  overflow="visible"/>
				</clipPath>
				<g clip-path="url(#SVGID_106_)" enable-background="new    ">
					<path d="M133.012,475.134L133.012,475.134c-0.073-0.237-0.149-0.486-0.222-0.725
						C132.863,474.647,132.939,474.896,133.012,475.134"/>
				</g>
			</g>
			<g>
				<path d="M131.376,469.8c0.477,1.568,0.946,3.097,1.414,4.609C132.322,472.896,131.853,471.369,131.376,469.8z"/>
			</g>
			<g>
				<path fill="#DDDDDD" d="M199.804,544.293c-4.715-0.839-9.306-4.675-14.114-12.258c2.943-4.807,5.863-10.76,8.756-17.592
					c4.932,11.732,9.504,19.765,14.001,24.708C205.562,542.109,202.706,543.766,199.804,544.293z"/>
			</g>
			<g>
				<path d="M199.971,442.268c18.792,67.258,31.23,96.337,44.253,102.088C231.21,538.613,218.763,509.544,199.971,442.268z"/>
			</g>
			<g>
				<path d="M170.189,544.355h25.668H170.189z"/>
			</g>
			<g>
				<path d="M308.384,544.355h30.357H308.384z"/>
			</g>
			<g enable-background="new    ">
				<defs>
					<path id="SVGID_107_" enable-background="new    " d="M130.813,371.588c7.611,19.003,15.008,43.7,22.132,69.258l0,0
						C145.821,415.288,138.424,390.591,130.813,371.588z"/>
				</defs>
				<clipPath id="SVGID_108_">
					<use xlink:href="#SVGID_107_"  overflow="visible"/>
				</clipPath>
				<g clip-path="url(#SVGID_108_)" enable-background="new    ">
					<path d="M130.813,371.588c7.611,19.003,15.008,43.7,22.132,69.258l0,0C145.821,415.288,138.424,390.591,130.813,371.588"/>
				</g>
			</g>
			<g enable-background="new    ">
				<defs>
					<path id="SVGID_109_" enable-background="new    " d="M151.649,442.268c-20.888-74.753-33.255-102.329-47.223-105.272
						C118.395,339.938,130.761,367.515,151.649,442.268z"/>
				</defs>
				<clipPath id="SVGID_110_">
					<use xlink:href="#SVGID_109_"  overflow="visible"/>
				</clipPath>
				<g clip-path="url(#SVGID_110_)" enable-background="new    ">
					<path d="M151.649,442.268c-20.888-74.753-33.255-102.329-47.223-105.272C118.395,339.938,130.761,367.515,151.649,442.268"/>
				</g>
			</g>
			<g enable-background="new    ">
				<defs>
					<path id="SVGID_111_" enable-background="new    " d="M121.688,442.268c-20.907-74.844-33.282-102.392-47.268-105.29
						C88.407,339.876,100.781,367.424,121.688,442.268z"/>
				</defs>
				<clipPath id="SVGID_112_">
					<use xlink:href="#SVGID_111_"  overflow="visible"/>
				</clipPath>
				<g clip-path="url(#SVGID_112_)" enable-background="new    ">
					<path d="M121.688,442.268c-20.907-74.844-33.282-102.392-47.268-105.29C88.407,339.876,100.781,367.424,121.688,442.268"/>
				</g>
			</g>
			<g enable-background="new    ">
				<defs>
					<path id="SVGID_113_" enable-background="new    " d="M172.269,440.846c-19.071-68.417-31.581-97.829-44.649-103.85
						C140.688,343.017,153.197,372.429,172.269,440.846z"/>
				</defs>
				<clipPath id="SVGID_114_">
					<use xlink:href="#SVGID_113_"  overflow="visible"/>
				</clipPath>
				<g clip-path="url(#SVGID_114_)" enable-background="new    ">
					<path fill="#858585" d="M172.269,440.846L172.269,440.846c-19.071-68.417-31.581-97.829-44.649-103.85
						C140.688,343.017,153.197,372.429,172.269,440.846"/>
				</g>
			</g>
			<g enable-background="new    ">
				<defs>
					<path id="SVGID_115_" enable-background="new    " d="M199.971,442.268c-20.89-74.753-33.255-102.329-47.224-105.272
						C166.715,339.938,179.081,367.515,199.971,442.268z"/>
				</defs>
				<clipPath id="SVGID_116_">
					<use xlink:href="#SVGID_115_"  overflow="visible"/>
				</clipPath>
				<g clip-path="url(#SVGID_116_)" enable-background="new    ">
					<path d="M199.971,442.268c-20.89-74.753-33.255-102.329-47.224-105.272C166.715,339.938,179.081,367.515,199.971,442.268"/>
				</g>
			</g>
			<g>
				<path fill="#DDDDDD" d="M199.971,442.268c18.792,67.276,31.239,96.346,44.208,102.088h-24.669
					c-13.959-2.007-26.766-30.06-47.241-103.51c-19.071-68.417-31.581-97.829-44.649-103.85h25.128
					C166.715,339.938,179.081,367.515,199.971,442.268z"/>
			</g>
			<g>
				<path fill="#8E8E8E" d="M127.62,336.996h25.128H127.62z"/>
			</g>
			<g enable-background="new    ">
				<defs>
					<path id="SVGID_117_" enable-background="new    " d="M122.985,440.846c-19.071-68.417-31.581-97.829-44.649-103.85
						C91.404,343.017,103.914,372.429,122.985,440.846z"/>
				</defs>
				<clipPath id="SVGID_118_">
					<use xlink:href="#SVGID_117_"  overflow="visible"/>
				</clipPath>
				<g clip-path="url(#SVGID_118_)" enable-background="new    ">
					<path fill="#858585" d="M122.985,440.846L122.985,440.846c-19.071-68.417-31.581-97.829-44.649-103.85
						C91.404,343.017,103.914,372.429,122.985,440.846"/>
				</g>
			</g>
			<g>
				<path d="M199.804,544.293l-30.334,0.558h-2.225c-13.496-4.356-26.133-33.087-45.556-102.583
					c-20.907-74.844-33.282-102.392-47.268-105.29l-2.351-0.486h35.326c15.961,5.568,31.3,53.237,45.549,104.354
					c12.952,46.462,22.832,74.759,31.879,89.787c0.289,0.481,0.579,0.949,0.866,1.402
					C190.498,539.618,195.089,543.454,199.804,544.293z M195.857,544.355c-12.978-5.751-25.416-34.83-44.208-102.088
					c-20.888-74.753-33.255-102.329-47.223-105.272H78.335c13.068,6.021,25.578,35.433,44.649,103.85
					c20.457,73.388,33.255,101.458,47.205,103.51H195.857"/>
			</g>
			<g>
				<path fill="#8E8E8E" d="M78.335,336.996h26.091H78.335z"/>
			</g>
			<g enable-background="new    ">
				<defs>
					<path id="SVGID_119_" enable-background="new    " d="M170.981,442.268c-20.916-74.844-33.281-102.392-47.276-105.29
						C137.7,339.876,150.065,367.424,170.981,442.268z"/>
				</defs>
				<clipPath id="SVGID_120_">
					<use xlink:href="#SVGID_119_"  overflow="visible"/>
				</clipPath>
				<g clip-path="url(#SVGID_120_)" enable-background="new    ">
					<path d="M170.981,442.268c-20.916-74.844-33.281-102.392-47.276-105.29C137.7,339.876,150.065,367.424,170.981,442.268"/>
				</g>
			</g>
			<g enable-background="new    ">
				<defs>
					<path id="SVGID_121_" enable-background="new    " d="M155.708,336.492c15.962,5.567,31.301,53.237,45.549,104.354l0,0
						C187.009,389.729,171.669,342.059,155.708,336.492z"/>
				</defs>
				<clipPath id="SVGID_122_">
					<use xlink:href="#SVGID_121_"  overflow="visible"/>
				</clipPath>
				<g clip-path="url(#SVGID_122_)" enable-background="new    ">
					<path d="M155.708,336.492c0.059,0.021,0.119,0.042,0.178,0.064C155.826,336.534,155.767,336.512,155.708,336.492"/>
					<path d="M155.886,336.556c0.784,0.289,1.566,0.679,2.347,1.166l0,0C157.452,337.235,156.67,336.845,155.886,336.556"/>
					<path d="M158.233,337.722L158.233,337.722c6.88,4.29,13.64,16.085,20.24,32.252
						C171.873,353.807,165.113,342.011,158.233,337.722"/>
					<path d="M178.473,369.974c7.841,19.208,15.457,44.584,22.784,70.872l0,0C193.93,414.558,186.313,389.181,178.473,369.974"/>
				</g>
			</g>
			<g>
				<path d="M248.115,544.293l-29.362,0.558h-2.224c-2.345-0.757-4.664-2.249-6.997-4.563c-0.361-0.359-0.723-0.736-1.085-1.136
					c-4.497-4.943-9.068-12.977-14.001-24.708c-0.27-0.641-0.54-1.293-0.812-1.957c-6.652-16.238-13.975-39.153-22.653-70.219
					c-20.916-74.844-33.281-102.392-47.276-105.29l-2.351-0.486h34.354c15.962,5.567,31.301,53.237,45.549,104.354
					c2.703,9.693,5.269,18.589,7.724,26.745c0.285,0.943,0.567,1.878,0.848,2.802c5.145,16.912,9.793,30.503,14.135,41.188
					c0.273,0.672,0.546,1.335,0.817,1.984c3.073,7.37,5.997,13.273,8.842,17.866c0.293,0.471,0.583,0.927,0.874,1.371
					C239.124,539.876,243.563,543.482,248.115,544.293z M244.179,544.355c-12.979-5.751-25.416-34.83-44.208-102.088
					c-20.89-74.753-33.255-102.329-47.224-105.272H127.62c13.068,6.021,25.578,35.434,44.649,103.85
					c20.457,73.388,33.255,101.458,47.205,103.51H244.179"/>
			</g>
			<g>
				<path d="M121.354,336.492h34.354H121.354z"/>
			</g>
			<g>
				<path fill="#DDDDDD" d="M151.649,442.268c18.792,67.267,31.239,96.346,44.208,102.088h-25.632
					c-13.959-2.007-26.766-30.06-47.241-103.51c-19.071-68.417-31.581-97.829-44.649-103.85h26.091
					C118.395,339.938,130.761,367.515,151.649,442.268z"/>
			</g>
			<g>
				<polygon points="403.191,336.474 403.191,336.474 438.525,336.492 				"/>
			</g>
			<g>
				<path d="M403.19,336.492c12.015-0.018,24.881-0.018,35.821-0.018l-0.486,0.018H403.19z"/>
			</g>
			<g enable-background="new    ">
				<defs>
					<path id="SVGID_123_" enable-background="new    " d="M294.524,442.268c-20.889-74.762-33.255-102.329-47.223-105.272
						C261.27,339.938,273.635,367.505,294.524,442.268z"/>
				</defs>
				<clipPath id="SVGID_124_">
					<use xlink:href="#SVGID_123_"  overflow="visible"/>
				</clipPath>
				<g clip-path="url(#SVGID_124_)" enable-background="new    ">
					<path d="M294.524,442.268c-20.889-74.762-33.255-102.329-47.223-105.272C261.27,339.938,273.635,367.505,294.524,442.268"/>
				</g>
			</g>
			<g>
				<polygon points="357.777,336.474 357.777,336.474 389.395,336.492 				"/>
			</g>
			<g enable-background="new    ">
				<defs>
					<path id="SVGID_125_" enable-background="new    " d="M358.433,336.978c-13.896,1.998-26.701,30.06-47.177,103.509
						C331.731,367.038,344.537,338.975,358.433,336.978z"/>
				</defs>
				<clipPath id="SVGID_126_">
					<use xlink:href="#SVGID_125_"  overflow="visible"/>
				</clipPath>
				<g clip-path="url(#SVGID_126_)" enable-background="new    ">
					<path d="M358.433,336.978c-6.153,0.885-12.093,6.88-18.579,19.664C346.34,343.857,352.279,337.862,358.433,336.978"/>
					<path d="M339.854,356.642c-6.642,13.09-13.856,33.299-22.462,62.426C325.997,389.94,333.212,369.732,339.854,356.642"/>
					<path d="M317.392,419.068c-1.97,6.666-4.012,13.797-6.136,21.418C313.38,432.865,315.422,425.733,317.392,419.068"/>
				</g>
			</g>
			<g enable-background="new    ">
				<defs>
					<path id="SVGID_127_" enable-background="new    " d="M389.43,336.968c-13.969,2.007-26.774,30.07-47.25,103.519
						C362.655,367.038,375.461,338.976,389.43,336.968z"/>
				</defs>
				<clipPath id="SVGID_128_">
					<use xlink:href="#SVGID_127_"  overflow="visible"/>
				</clipPath>
				<g clip-path="url(#SVGID_128_)" enable-background="new    ">
					<path d="M389.43,336.968c-6.195,0.891-12.161,6.905-18.669,19.731C377.269,343.873,383.234,337.858,389.43,336.968"/>
					<path d="M370.761,356.699c-6.646,13.095-13.854,33.291-22.449,62.38C356.906,389.989,364.115,369.794,370.761,356.699"/>
					<path d="M348.312,419.079c-1.968,6.662-4.009,13.791-6.132,21.407C344.303,432.87,346.344,425.741,348.312,419.079"/>
				</g>
			</g>
			<g enable-background="new    ">
				<defs>
					<path id="SVGID_129_" enable-background="new    " d="M384.596,336.978c-2.015,0.949-4.014,2.553-5.994,4.726l0,0l0,0l0,0
						C380.582,339.531,382.581,337.926,384.596,336.978z"/>
				</defs>
				<clipPath id="SVGID_130_">
					<use xlink:href="#SVGID_129_"  overflow="visible"/>
				</clipPath>
				<g clip-path="url(#SVGID_130_)" enable-background="new    ">
					<path fill="#858585" d="M384.596,336.978c-5.269,2.48-10.425,9.443-15.434,19.322
						C374.171,346.42,379.327,339.458,384.596,336.978"/>
				</g>
			</g>
			<g enable-background="new    ">
				<defs>
					<path id="SVGID_131_" enable-background="new    " d="M378.602,341.704L378.602,341.704L378.602,341.704
						c-5.942,6.519-11.717,18.15-17.272,32.532C366.885,359.854,372.659,348.222,378.602,341.704z"/>
				</defs>
				<clipPath id="SVGID_132_">
					<use xlink:href="#SVGID_131_"  overflow="visible"/>
				</clipPath>
				<g clip-path="url(#SVGID_132_)" enable-background="new    ">
					<path fill="#858585" d="M384.596,336.978c-5.269,2.48-10.425,9.443-15.434,19.322
						C374.171,346.42,379.327,339.458,384.596,336.978"/>
					<path fill="#8A8A8A" d="M369.162,356.3c-2.659,5.248-5.277,11.318-7.849,17.977C363.885,367.618,366.503,361.547,369.162,356.3
						"/>
				</g>
			</g>
			<g>
				<path d="M309.455,440.919c13.342-47.937,28.86-98.91,45.47-104.445c0.966,0,1.917,0,2.853,0l31.617,0.018l0.035,0.476
					c-13.969,2.008-26.774,30.07-47.25,103.519c-7.49,26.874-15.27,52.762-23.25,72.093c-0.271-0.658-0.543-1.328-0.817-2.009
					c6.521-16.237,13.729-38.986,22.268-69.651c13.004-46.719,28.08-96.345,44.216-103.941h-26.163
					c-13.896,1.998-26.701,30.06-47.177,103.509c-2.556,9.172-5.146,18.231-7.768,26.951c-0.277-0.925-0.559-1.867-0.841-2.811
					C304.823,457.313,307.089,449.418,309.455,440.919z"/>
			</g>
			<g>
				<path d="M386.541,336.474c1.091,0,2.204,0,3.339,0l-0.485,0.018h-31.618c0.299-0.018,0.597-0.018,0.891-0.018
					C367.029,336.474,378.18,336.474,386.541,336.474z"/>
			</g>
			<g>
				<polygon points="314.289,336.474 314.289,336.474 343.973,336.492 				"/>
			</g>
			<g>
				<path d="M314.289,336.492c9.715-0.018,20.299-0.018,30.168-0.018l-0.484,0.018H314.289z"/>
			</g>
			<g>
				<polygon points="264.996,336.474 295.651,336.492 264.996,336.474 				"/>
			</g>
			<g enable-background="new    ">
				<defs>
					<path id="SVGID_133_" enable-background="new    " d="M265.662,336.978c-2.815,0.404-5.586,1.879-8.386,4.585
						C260.076,338.857,262.846,337.382,265.662,336.978z"/>
				</defs>
				<clipPath id="SVGID_134_">
					<use xlink:href="#SVGID_133_"  overflow="visible"/>
				</clipPath>
				<g clip-path="url(#SVGID_134_)" enable-background="new    ">
					<path d="M265.662,336.978c-2.815,0.404-5.586,1.879-8.386,4.585C260.076,338.857,262.846,337.382,265.662,336.978"/>
				</g>
			</g>
			<g enable-background="new    ">
				<defs>
					<path id="SVGID_135_" enable-background="new    " d="M256.156,340.41c1.981-1.924,3.981-3.264,5.996-3.936l0,0
						C260.137,337.146,258.137,338.486,256.156,340.41z"/>
				</defs>
				<clipPath id="SVGID_136_">
					<use xlink:href="#SVGID_135_"  overflow="visible"/>
				</clipPath>
				<g clip-path="url(#SVGID_136_)" enable-background="new    ">
					<path d="M256.156,340.41c1.981-1.924,3.981-3.264,5.996-3.936l0,0C260.137,337.146,258.137,338.486,256.156,340.41"/>
				</g>
			</g>
			<g enable-background="new    ">
				<defs>
					<path id="SVGID_137_" enable-background="new    " d="M290.853,336.978c-6.781,3.191-13.374,13.805-19.705,28.506
						C277.479,350.782,284.071,340.169,290.853,336.978z"/>
				</defs>
				<clipPath id="SVGID_138_">
					<use xlink:href="#SVGID_137_"  overflow="visible"/>
				</clipPath>
				<g clip-path="url(#SVGID_138_)" enable-background="new    ">
					<path fill="#858585" d="M290.853,336.978c-5.258,2.475-10.403,9.412-15.401,19.257
						C280.449,346.39,285.594,339.452,290.853,336.978"/>
					<path fill="#8A8A8A" d="M275.452,356.235L275.452,356.235c-1.447,2.851-2.882,5.947-4.304,9.248
						C272.569,362.182,274.004,359.086,275.452,356.235"/>
				</g>
			</g>
			<g>
				<path d="M257.276,341.563c-0.373-0.405-0.746-0.791-1.12-1.153c1.981-1.924,3.981-3.264,5.996-3.936c0.941,0,1.891,0,2.843,0
					l30.655,0.018l0.035,0.476c-7.738,1.113-15.118,10.222-23.643,30.615c-0.299-0.71-0.596-1.408-0.896-2.1
					c6.331-14.701,12.924-25.314,19.705-28.506h-25.191C262.846,337.382,260.076,338.857,257.276,341.563z"/>
			</g>
			<g>
				<path d="M264.995,336.492c10.411-0.018,21.386-0.018,31.145-0.018l-0.489,0.018H264.995z"/>
			</g>
			<g enable-background="new    ">
				<defs>
					<path id="SVGID_139_" enable-background="new    " d="M438.525,336.492c-13.933,2.484-26.73,30.546-47.205,103.996
						C411.795,367.038,424.593,338.976,438.525,336.492z"/>
				</defs>
				<clipPath id="SVGID_140_">
					<use xlink:href="#SVGID_139_"  overflow="visible"/>
				</clipPath>
				<g clip-path="url(#SVGID_140_)" enable-background="new    ">
					<path d="M438.525,336.492c-6.138,1.094-12.056,7.153-18.506,19.868l0,0C426.47,343.645,432.388,337.586,438.525,336.492"/>
					<path d="M420.02,356.36c-6.669,13.145-13.907,33.404-22.547,62.649l0,0C406.112,389.764,413.351,369.505,420.02,356.36"/>
					<path d="M397.473,419.009L397.473,419.009c-1.975,6.683-4.021,13.835-6.152,21.479
						C393.451,432.844,395.498,425.691,397.473,419.009"/>
				</g>
			</g>
			<g enable-background="new    ">
				<defs>
					<path id="SVGID_141_" enable-background="new    " d="M403.848,336.978c-13.896,1.999-26.703,30.06-47.169,103.51
						C377.145,367.038,389.952,338.976,403.848,336.978z"/>
				</defs>
				<clipPath id="SVGID_142_">
					<use xlink:href="#SVGID_141_"  overflow="visible"/>
				</clipPath>
				<g clip-path="url(#SVGID_142_)" enable-background="new    ">
					<path d="M403.848,336.978c-6.152,0.885-12.092,6.879-18.577,19.661l0,0C391.756,343.857,397.695,337.862,403.848,336.978"/>
					<path d="M385.271,356.639L385.271,356.639c-6.634,13.074-13.838,33.248-22.427,62.318
						C371.433,389.887,378.637,369.712,385.271,356.639"/>
					<path d="M362.844,418.957c-1.979,6.697-4.03,13.867-6.165,21.53C358.813,432.824,360.865,425.654,362.844,418.957"/>
				</g>
			</g>
			<g enable-background="new    ">
				<defs>
					<path id="SVGID_143_" enable-background="new    " d="M410.449,374.28c7.411-19.195,15.215-33.5,23.288-37.303
						C425.664,340.78,417.86,355.085,410.449,374.28z"/>
				</defs>
				<clipPath id="SVGID_144_">
					<use xlink:href="#SVGID_143_"  overflow="visible"/>
				</clipPath>
				<g clip-path="url(#SVGID_144_)" enable-background="new    ">
					<path fill="#858585" d="M433.737,336.978c-5.273,2.483-10.432,9.448-15.44,19.33l0,0
						C423.306,346.426,428.464,339.461,433.737,336.978"/>
					<path fill="#8A8A8A" d="M418.297,356.307L418.297,356.307c-2.659,5.247-5.277,11.316-7.848,17.973l0,0
						C413.02,367.623,415.638,361.554,418.297,356.307"/>
				</g>
			</g>
			<g>
				<path d="M391.32,440.487c-14.305,51.286-29.65,98.981-45.446,104.363h-2.848c13.502-3.077,26.255-31.271,46.484-103.932
					c13.015-46.719,28.08-96.336,44.227-103.941h-29.89c-13.896,1.999-26.703,30.06-47.169,103.51
					c-9.734,34.913-19.956,68.165-30.488,87.534c-0.276-0.497-0.553-1.007-0.832-1.53c8.425-15.841,17.69-43.116,29.512-85.572
					c13.343-47.931,28.862-98.907,45.474-104.445c0.943,0,1.892,0,2.848,0l35.334,0.018
					C424.593,338.976,411.795,367.038,391.32,440.487z"/>
			</g>
			<g>
				<path fill="#8E8E8E" d="M403.848,336.978h29.89H403.848z"/>
			</g>
			<g>
				<path fill="#DDDDDD" d="M342.679,544.293c-5.484-0.977-10.802-6.009-16.488-16.271c10.532-19.369,20.754-52.621,30.488-87.534
					c20.466-73.45,33.273-101.511,47.169-103.51h29.89c-16.146,7.605-31.212,57.222-44.227,103.941
					C369.281,513.579,356.528,541.773,342.679,544.293z"/>
			</g>
			<g enable-background="new    ">
				<defs>
					<path id="SVGID_145_" enable-background="new    " d="M215.757,440.846c-4.418-15.85-8.484-29.605-12.287-41.463
						c0.009,0.028,0.018,0.056,0.027,0.083c-0.009-0.028-0.018-0.056-0.027-0.083C207.272,411.24,211.339,424.996,215.757,440.846z"
						/>
				</defs>
				<clipPath id="SVGID_146_">
					<use xlink:href="#SVGID_145_"  overflow="visible"/>
				</clipPath>
				<g clip-path="url(#SVGID_146_)" enable-background="new    ">
					<path fill="#858585" d="M215.757,440.846L215.757,440.846c-19.071-68.417-31.581-97.829-44.649-103.85
						C184.176,343.017,196.686,372.429,215.757,440.846"/>
				</g>
			</g>
			<g enable-background="new    ">
				<defs>
					<path id="SVGID_147_" enable-background="new    " d="M202.228,395.548c0.411,1.255,0.825,2.534,1.242,3.834
						c0.009,0.028,0.018,0.056,0.027,0.083c-0.009-0.028-0.018-0.056-0.027-0.083C203.053,398.082,202.639,396.804,202.228,395.548z
						"/>
				</defs>
				<clipPath id="SVGID_148_">
					<use xlink:href="#SVGID_147_"  overflow="visible"/>
				</clipPath>
				<g clip-path="url(#SVGID_148_)" enable-background="new    ">
					<path fill="#858585" d="M215.757,440.846L215.757,440.846c-19.071-68.417-31.581-97.829-44.649-103.85
						C184.176,343.017,196.686,372.429,215.757,440.846"/>
				</g>
			</g>
			<g>
				<path fill="#8E8E8E" d="M171.107,336.996h27.063H171.107z"/>
			</g>
			<g enable-background="new    ">
				<defs>
					<path id="SVGID_149_" enable-background="new    " d="M214.47,442.268c-20.917-74.844-33.282-102.392-47.277-105.29
						C181.188,339.876,193.553,367.424,214.47,442.268z"/>
				</defs>
				<clipPath id="SVGID_150_">
					<use xlink:href="#SVGID_149_"  overflow="visible"/>
				</clipPath>
				<g clip-path="url(#SVGID_150_)" enable-background="new    ">
					<path d="M214.47,442.268c-20.917-74.844-33.282-102.392-47.277-105.29C181.188,339.876,193.553,367.424,214.47,442.268"/>
				</g>
			</g>
			<g enable-background="new    ">
				<defs>
					<path id="SVGID_151_" enable-background="new    " d="M232.532,393.641c-0.297-0.893-0.598-1.789-0.896-2.671
						C231.934,391.852,232.234,392.748,232.532,393.641z"/>
				</defs>
				<clipPath id="SVGID_152_">
					<use xlink:href="#SVGID_151_"  overflow="visible"/>
				</clipPath>
				<g clip-path="url(#SVGID_152_)" enable-background="new    ">
					<path d="M232.532,393.641c-0.297-0.893-0.598-1.789-0.896-2.671C231.934,391.852,232.234,392.748,232.532,393.641"/>
				</g>
			</g>
			<g enable-background="new    ">
				<defs>
					<path id="SVGID_153_" enable-background="new    " d="M238.93,375.505c4.294,11.321,8.931,25.487,14.108,42.933
						C247.86,400.992,243.224,386.826,238.93,375.505z"/>
				</defs>
				<clipPath id="SVGID_154_">
					<use xlink:href="#SVGID_153_"  overflow="visible"/>
				</clipPath>
				<g clip-path="url(#SVGID_154_)" enable-background="new    ">
					<path fill="#9E9E9E" d="M238.93,375.505L238.93,375.505c4.294,11.321,8.931,25.487,14.108,42.933
						C247.86,400.992,243.224,386.826,238.93,375.505"/>
				</g>
			</g>
			<g>
				<path fill="#DDDDDD" d="M253.038,418.438c-2.173,7.405-4.297,14.923-6.37,22.363c-4.604-16.516-9.321-32.669-14.136-47.159
					c2.217-6.708,4.343-12.739,6.398-18.137C243.224,386.826,247.86,400.992,253.038,418.438z"/>
			</g>
			<g>
				<path d="M293.539,544.293l-31.298,0.558h-2.225c-1.51-0.487-3.008-1.28-4.507-2.399c-0.426-0.319-0.85-0.662-1.276-1.033
					c-4.357-3.802-8.741-10.428-13.411-20.439c-0.268-0.572-0.538-1.161-0.808-1.757c-2.813-6.221-5.733-13.662-8.818-22.447
					c-0.276-0.787-0.553-1.581-0.832-2.391c-4.333-12.556-8.995-27.737-14.133-45.855c-0.282-0.992-0.563-1.988-0.847-3
					c-0.304-1.076-0.609-2.162-0.915-3.261c-20.917-74.844-33.282-102.392-47.277-105.29l-2.35-0.486h36.29
					c10.485,3.656,20.693,25.46,30.504,54.479c0.298,0.882,0.598,1.778,0.896,2.671c4.815,14.49,9.532,30.644,14.136,47.16
					c0.291,1.045,0.568,2.036,0.844,3.02c3.111,11.081,6.042,21.096,8.827,30.121c0.281,0.909,0.562,1.813,0.84,2.7
					c4.951,15.848,9.441,28.518,13.656,38.415c0.273,0.641,0.545,1.271,0.816,1.889c2.208,5.039,4.343,9.311,6.43,12.877
					c0.287,0.488,0.572,0.964,0.856,1.426C283.924,539.352,288.667,543.424,293.539,544.293z M289.602,544.355
					c-12.978-5.751-25.416-34.83-44.208-102.088c-20.889-74.753-33.255-102.329-47.223-105.272h-27.063
					c13.067,6.021,25.578,35.433,44.649,103.85c1.357,4.869,2.68,9.541,3.973,14.017c0.317,1.096,0.56,1.933,0.799,2.757
					c0.111,0.381,0.219,0.75,0.329,1.127c0.113,0.389,0.216,0.74,0.32,1.094c0.1,0.343,0.202,0.688,0.301,1.028
					c0.06,0.206,0.122,0.411,0.182,0.615c0.481,1.635,0.957,3.235,1.43,4.814c0.089,0.296,0.154,0.514,0.219,0.729
					c0.6,1.991,0.732,2.428,0.864,2.863c8.634,28.437,15.869,47.541,22.605,59.288c6.006,10.089,11.014,14.417,16.182,15.177
					H289.602"/>
			</g>
			<g>
				<path d="M164.842,336.492h36.29H164.842z"/>
			</g>
			<g enable-background="new    ">
				<defs>
					<path id="SVGID_155_" enable-background="new    " d="M261.171,440.846c-19.071-68.417-31.581-97.829-44.649-103.85
						C229.59,343.017,242.1,372.429,261.171,440.846z"/>
				</defs>
				<clipPath id="SVGID_156_">
					<use xlink:href="#SVGID_155_"  overflow="visible"/>
				</clipPath>
				<g clip-path="url(#SVGID_156_)" enable-background="new    ">
					<path fill="#858585" d="M261.171,440.846L261.171,440.846c-19.071-68.417-31.581-97.829-44.649-103.85
						C229.59,343.017,242.1,372.429,261.171,440.846"/>
				</g>
			</g>
			<g>
				<path fill="#DDDDDD" d="M294.524,442.268c18.793,67.267,31.239,96.346,44.218,102.088h-30.321
					c-5.071-0.729-9.992-4.893-15.18-13.415c-7.382-12.715-14.344-30.806-22.58-57.546c-0.122-0.392-0.241-0.782-0.362-1.179
					c-0.31-1.011-0.511-1.669-0.709-2.325c-0.246-0.811-0.448-1.479-0.652-2.155c-0.147-0.49-0.29-0.964-0.432-1.439
					c-0.628-2.102-0.793-2.661-0.958-3.218c-2.043-6.896-4.166-14.301-6.376-22.232c-19.071-68.417-31.581-97.829-44.649-103.85
					h30.78C261.27,339.938,273.635,367.505,294.524,442.268z"/>
			</g>
			<g>
				<path fill="#8E8E8E" d="M358.434,336.978h26.162H358.434z"/>
			</g>
			<g>
				<path fill="#DDDDDD" d="M340.379,440.919c-8.537,30.665-15.746,53.414-22.267,69.651c-4.478-11.155-9.281-25.379-14.624-43.133
					c2.621-8.72,5.212-17.779,7.768-26.95c20.476-73.45,33.281-101.511,47.178-103.51h26.162
					C368.46,344.574,353.384,394.2,340.379,440.919z"/>
			</g>
			<g enable-background="new    ">
				<defs>
					<path id="SVGID_157_" enable-background="new    " d="M281.739,393.86L281.739,393.86c-0.297-0.895-0.594-1.783-0.892-2.665
						C281.146,392.078,281.442,392.965,281.739,393.86z"/>
				</defs>
				<clipPath id="SVGID_158_">
					<use xlink:href="#SVGID_157_"  overflow="visible"/>
				</clipPath>
				<g clip-path="url(#SVGID_158_)" enable-background="new    ">
					<path d="M281.739,393.86L281.739,393.86c-0.297-0.895-0.594-1.783-0.892-2.665C281.146,392.078,281.442,392.965,281.739,393.86
						"/>
				</g>
			</g>
			<g enable-background="new    ">
				<defs>
					<path id="SVGID_159_" enable-background="new    " d="M344.007,336.968c-13.969,2.007-26.775,30.07-47.25,103.52
						C317.231,367.038,330.038,338.976,344.007,336.968z"/>
				</defs>
				<clipPath id="SVGID_160_">
					<use xlink:href="#SVGID_159_"  overflow="visible"/>
				</clipPath>
				<g clip-path="url(#SVGID_160_)" enable-background="new    ">
					<path d="M344.007,336.968c-6.195,0.891-12.161,6.905-18.67,19.731C331.846,343.873,337.812,337.858,344.007,336.968"/>
					<path d="M325.337,356.699c-6.644,13.094-13.853,33.286-22.445,62.371C311.484,389.985,318.693,369.793,325.337,356.699"/>
					<path d="M302.892,419.07c-1.969,6.665-4.011,13.797-6.135,21.417C298.881,432.867,300.923,425.735,302.892,419.07"/>
				</g>
			</g>
			<g enable-background="new    ">
				<defs>
					<path id="SVGID_161_" enable-background="new    " d="M316.14,373.634c7.337-18.872,15.056-32.901,23.034-36.657
						C331.195,340.733,323.477,354.762,316.14,373.634z"/>
				</defs>
				<clipPath id="SVGID_162_">
					<use xlink:href="#SVGID_161_"  overflow="visible"/>
				</clipPath>
				<g clip-path="url(#SVGID_162_)" enable-background="new    ">
					<path fill="#858585" d="M339.174,336.978c-5.27,2.48-10.425,9.441-15.433,19.318
						C328.749,346.418,333.904,339.458,339.174,336.978"/>
					<path fill="#8A8A8A" d="M323.741,356.295L323.741,356.295c-2.574,5.08-5.11,10.93-7.602,17.339
						C318.631,367.225,321.167,361.375,323.741,356.295"/>
				</g>
			</g>
			<g>
				<path fill="#DDDDDD" d="M295.394,439.35c-4.449-15.926-9.006-31.482-13.654-45.489c12.931-39.151,22.761-55.381,33.197-56.883
					h24.237C323.217,344.489,308.299,393.094,295.394,439.35z"/>
			</g>
			<g>
				<path d="M280.848,391.195c9.542-28.516,19.836-51.138,30.59-54.722c0.94,0,1.893,0,2.852,0l29.684,0.018l0.034,0.476
					c-13.969,2.008-26.775,30.07-47.25,103.52c-0.174,0.624-0.349,1.248-0.523,1.871c-0.141-0.502-0.281-1.006-0.422-1.513
					c-0.14-0.499-0.279-0.997-0.418-1.496c12.905-46.257,27.823-94.861,43.78-102.372h-24.237
					c-10.437,1.502-20.266,17.731-33.197,56.883C281.442,392.965,281.146,392.078,280.848,391.195z"/>
			</g>
			<g>
				<path fill="#8E8E8E" d="M314.937,336.978h24.237H314.937z"/>
			</g>
			<g enable-background="new    ">
				<defs>
					<path id="SVGID_163_" enable-background="new    " d="M286.928,378.933c-1.677,4.554-3.403,9.522-5.188,14.928l0,0
						C283.524,388.455,285.251,383.486,286.928,378.933z"/>
				</defs>
				<clipPath id="SVGID_164_">
					<use xlink:href="#SVGID_163_"  overflow="visible"/>
				</clipPath>
				<g clip-path="url(#SVGID_164_)" enable-background="new    ">
					<path fill="#858585" d="M281.739,393.86L281.739,393.86c1.785-5.405,3.512-10.374,5.188-14.928
						C285.251,383.486,283.524,388.455,281.739,393.86"/>
				</g>
			</g>
			<g>
				<path d="M232.532,393.641c-0.297-0.893-0.598-1.789-0.896-2.671c2.099-6.26,4.234-12.237,6.402-17.784
					c0.295,0.759,0.592,1.532,0.891,2.319C236.875,380.903,234.75,386.935,232.532,393.641z"/>
			</g>
			<g>
				<path fill="#8E8E8E" d="M216.521,336.996h30.78H216.521z"/>
			</g>
			<g>
				<path fill="#8E8E8E" d="M265.662,336.978h25.191H265.662z"/>
			</g>
			<g enable-background="new    ">
				<defs>
					<path id="SVGID_165_" enable-background="new    " d="M276.47,378.812c-1.468-3.947-2.944-7.702-4.427-11.229
						C273.526,371.109,275.002,374.865,276.47,378.812z"/>
				</defs>
				<clipPath id="SVGID_166_">
					<use xlink:href="#SVGID_165_"  overflow="visible"/>
				</clipPath>
				<g clip-path="url(#SVGID_166_)" enable-background="new    ">
					<path d="M272.043,367.583c0.32,0.761,0.64,1.533,0.959,2.315C272.683,369.116,272.363,368.344,272.043,367.583"/>
					<path d="M273.002,369.898c1.161,2.841,2.317,5.819,3.468,8.914C275.319,375.717,274.163,372.739,273.002,369.898"/>
				</g>
			</g>
			<g>
				<path d="M342.679,544.293l-35.015,0.558h-2.227c-1.51-0.487-3.008-1.279-4.507-2.398c-0.425-0.317-0.851-0.661-1.277-1.032
					c-4.657-4.062-9.343-11.345-14.376-22.538c-0.268-0.597-0.538-1.203-0.808-1.821c-2.07-4.739-4.2-10.136-6.414-16.235
					c-0.273-0.754-0.549-1.521-0.825-2.298c-4.202-11.804-8.704-26.113-13.654-43.251c-0.277-0.96-0.558-1.938-0.838-2.915
					c-0.935-3.265-1.886-6.627-2.855-10.094c-2.073-7.422-4.063-14.385-5.98-20.9c-0.291-0.99-0.578-1.96-0.865-2.929
					c-5.176-17.446-9.814-31.612-14.108-42.933c-0.299-0.787-0.596-1.56-0.891-2.319c-9.332-24.009-17.091-34.482-25.423-36.208
					l-2.355-0.486h40.009c1.973,0.688,3.934,2.017,5.886,3.917c0.374,0.365,0.747,0.75,1.12,1.154
					c4.688,5.092,9.317,13.406,13.871,23.92c0.3,0.691,0.598,1.39,0.896,2.1c2.967,7.053,5.904,15.02,8.805,23.612
					c0.298,0.882,0.595,1.77,0.892,2.665c4.648,14.007,9.206,29.563,13.654,45.489c0.14,0.499,0.279,0.997,0.418,1.496
					c0.141,0.507,0.282,1.011,0.422,1.513c2.225,7.957,4.359,15.368,6.414,22.269c0.282,0.943,0.563,1.885,0.841,2.811
					c5.343,17.754,10.146,31.978,14.625,43.133c0.273,0.681,0.545,1.35,0.816,2.009c2.213,5.374,4.347,9.994,6.429,13.912
					c0.279,0.523,0.556,1.033,0.832,1.53C331.877,538.284,337.194,543.316,342.679,544.293z M338.741,544.355
					c-12.986-5.751-25.424-34.83-44.217-102.088c-20.889-74.762-33.255-102.329-47.223-105.272h-30.78
					c13.068,6.021,25.578,35.433,44.649,103.85c2.211,7.934,4.333,15.334,6.376,22.232c0.165,0.557,0.331,1.116,0.495,1.666
					c0.606,2.027,0.749,2.501,0.89,2.971c0.21,0.697,0.412,1.365,0.615,2.033c0.242,0.799,0.442,1.457,0.641,2.104
					c0.231,0.756,0.354,1.155,0.474,1.543c8.236,26.74,15.198,44.831,21.704,56.068c6.053,9.983,10.96,14.149,16.019,14.893H338.741
					"/>
			</g>
			<g>
				<path fill="#DDDDDD" d="M271.147,365.483c-4.554-10.515-9.183-18.828-13.872-23.92c2.8-2.706,5.57-4.18,8.386-4.585h25.191
					C284.071,340.169,277.479,350.782,271.147,365.483z"/>
			</g>
			<g enable-background="new    ">
				<defs>
					<path id="SVGID_167_" enable-background="new    " d="M238.039,373.186c-9.332-24.009-17.091-34.482-25.423-36.208
						C220.947,338.704,228.707,349.177,238.039,373.186z"/>
				</defs>
				<clipPath id="SVGID_168_">
					<use xlink:href="#SVGID_167_"  overflow="visible"/>
				</clipPath>
				<g clip-path="url(#SVGID_168_)" enable-background="new    ">
					<path d="M238.039,373.186c-9.332-24.009-17.091-34.482-25.423-36.208C220.947,338.704,228.707,349.177,238.039,373.186"/>
				</g>
			</g>
			<g>
				<path d="M210.261,336.492h40.009H210.261z"/>
			</g>
			<g>
				<path d="M72.07,336.492h35.326H72.07z"/>
			</g>
		</g>
	</g>
</g>
<rect x="165.03" y="557.09" fill="none" width="259.702" height="94.029"/>
<text transform="matrix(1 0 0 1 165.0298 581.1016)"><tspan x="0" y="0" fill="#4BB749" font-family="'Algerian'" font-size="36">keen-group</tspan><tspan x="0" y="43.2" fill="#4BB749" font-family="'Algerian'" font-size="36">consulting</tspan></text>
</svg>
